<?xml version="1.0" encoding="utf-8"?>
<!-- Generator: Adobe Illustrator 26.0.3, SVG Export Plug-In . SVG Version: 6.00 Build 0)  -->
<svg version="1.1" id="Laag_1" xmlns="http://www.w3.org/2000/svg" xmlns:xlink="http://www.w3.org/1999/xlink" x="0px" y="0px"
	 viewBox="0 0 1080 1080" style="enable-background:new 0 0 1080 1080;" xml:space="preserve">
<style type="text/css">
	.st0{fill:#F4E5C2;}
	.st1{fill:#F7D08D;}
	.st2{fill:#EEB340;}
	.st3{fill:#EAA12D;}
	.st4{fill:#D9CCBF;}
	.st5{fill:#EBEAEB;}
	.st6{fill:#98979D;}
	.st7{fill:#7D7477;}
	.st8{fill:#504D51;}
	.st9{fill:#FAE4C6;}
	.st10{fill:#1D1D1B;}
</style>
<polygon class="st0" points="183,614.3 209.5,604.7 189.7,582.1 154.2,575.2 164.9,614.3 "/>
<polygon class="st1" points="82.3,392.1 107.8,392.1 183.6,419.4 220.2,421.5 212.5,443.8 202.8,475.9 199.5,501 176.3,507.6 
	93.5,449.1 93.9,408.5 "/>
<path class="st2" d="M94.2,403.3c0,0,12.8,65.9,105.6,92.5c-10,47.6-20.9,85.3-25.2,113.3c-4.8,30.6-56.2,5.2-56.2,5.2l-52.7-22.1
	L94.2,403.3z"/>
<path class="st3" d="M119.6,449.8c0,0-7.1,47.4-3.3,81.4c3.9,34,17.5,70.8,60.7,81c15.3,3.6-4.4,24.2-4.4,24.2l-93-11.1l-20.2-23.3
	l29.1-122.9l5.2-74.2l19,35.4L119.6,449.8z"/>
<polygon class="st0" points="212.5,443.8 202.8,475.9 223.1,484.2 240.8,480.9 248.1,466.9 "/>
<path class="st4" d="M281.7,634.6c15.4,0.2,30.9,0.4,46.3,0.6"/>
<path class="st5" d="M231.4,436.9c0.2,2.3,0.4,4.6,0.6,6.9C231.8,441.5,231.6,439.2,231.4,436.9z"/>
<path class="st6" d="M264.4,633.2c-2.7-0.6-5.4-1.3-8.1-1.9C259,631.9,261.7,632.5,264.4,633.2z"/>
<path class="st4" d="M229,633.6c0.9,0.6,1.9,1.1,2.8,1.7C230.9,634.8,230,634.2,229,633.6z"/>
<path class="st4" d="M242.3,626.7c-1.1-0.3-2.1-0.6-3.2-1C240.2,626.1,241.2,626.4,242.3,626.7z"/>
<path class="st7" d="M206.5,508.8c-1.1,1.3-2.2,2.6-3.2,3.9C204.3,511.4,205.4,510.1,206.5,508.8z"/>
<path class="st8" d="M217,488.5c-1-1.4-1.9-2.9-2.9-4.3C215.1,485.6,216,487.1,217,488.5z"/>
<path class="st5" d="M260.1,422.2c-1.1-0.2-2.1-0.4-3.2-0.6C257.9,421.8,259,422,260.1,422.2z"/>
<path class="st0" d="M65.6,578.7c0,0,5.1,32,108.9,30.5c0,24.7-3.8,26.2-3.8,26.2h-39.8l-48.5-6.8l-27.2-24.7L65.6,578.7z"/>
<path class="st9" d="M82.6,392.6c0,0,22,4.7,31,15.7s-3.6,30,17.6,27.1s17.3-22.9,25.1-17.4c7.8,5.5,19.7,16.8,28.1,12.9
	s31.2-4.5,34.5,0.3c3.3,4.9-6.3-22-6.3-22l-28.8,4.9l-8.7-6.2l-1.6-20.9l-19.1-10.3l3.2-18.3l-4.9-17.8l-20-1.6l-15.5-31.7
	l-20.7-1.3l-5.2,19.4l8.1,14.6l-9.1,14.2l-7.8,27.2V392.6z"/>
<path class="st10" d="M921.2,524.4c-11,1.9-23.4,2.8-35.1,6.3c-13.6,4-27.7,7.7-36.8,20.5c-12.2,17-10.7,36.4,4.7,50.5
	c9.1,8.4,17.5,18.2,31.1,19.2c5.3,0.4,10.6,0.1,16.2,1.6c-5.5,1.2-11,2.3-16.5,3.5c-0.1,0.6-0.2,1.3-0.3,1.9c3.8,0.4,7.6,1,11.4,1
	c8.8,0,18.1-3.5,25.2,5.5c1.5,1.9,6.2,1,9.1,2.1c2.1,0.8,3.7,2.9,5.5,4.4c-1.6,1.4-3,3.6-4.9,4c-23.4,5.9-45.4,3.2-65.5-10.9
	c-1.1-0.7-3.1-1.9-2.9-2.3c2.7-8.8-5-11.5-9.6-15c-13.9-10.5-16.9-25.7-20-41.2c-0.4-1.9-0.3-4-1-5.8c-9.9-25,10.6-42.8,30.3-45.8
	c3.2-0.5,6.6-1,9.4-2.5c1.2-0.6,1.3-3.6,2.1-6.5C883.9,513.4,913.1,519.1,921.2,524.4z"/>
<path class="st10" d="M660.5,669.9c15.8-5.1,32-6.3,48.4-3.8c15.5,2.3,30.7,7.1,46.2,8c20.5,1.2,40.7-2.6,57.9-15.2
	c9.7-7.2,8.9-19.1,11.4-29.5c1.2-5.1,2.9-10,4.4-15.1c0.8,0.2,1.7,0.3,2.5,0.5c3.6,10,7.6,19.8,10.5,30c0.8,2.9-0.9,7.3-2.9,10
	c-13.8,18.7-29.3,34.8-55.2,34.3c-6.5-0.1-13.2,1.8-19.6,1.1c-10.3-1.1-20.4-3.5-30.6-5.5c-19.2-3.7-38.4-7.7-57.7-11.2
	c-5-0.9-10.2-0.6-15.3-0.9C660.4,671.7,660.5,670.8,660.5,669.9z"/>
<path class="st10" d="M503.3,633.4c9.7,0.8,19.9,0,29.1,2.8c23.7,7.1,47.3,15,70.4,24.1c17.6,7,34.3,16.2,51.3,24.7
	c1.9,0.9,3,3.4,3.1,7.1c-14.4-5.3-28.9-10.6-43.3-15.9c-0.4,0.7-0.8,1.3-1.2,2c5.8,4.8,11.7,9.6,17.5,14.3c-0.3,0.4-0.6,0.7-0.9,1.1
	c-42.3-18.6-84.6-37.3-126.8-55.9C502.8,636.3,503.1,634.8,503.3,633.4z"/>
<path class="st10" d="M893.9,723.1c-6.7-3.2-12.6-6-19-9.1c14.1-11.8,48.9-8,58.6,5.3c4.5,6.2,3.6,13.8-4,16
	c-12,3.5-24.7,5.1-37.1,6.2c-6.2,0.5-5.7-5.2-4.1-9.4C889.4,729.2,891.6,726.7,893.9,723.1z"/>
<path class="st10" d="M995.9,530.7c-6.6,10.6-14.4,12.5-24.4,5.9c-12.6-8.3-22.1-6.8-35.7,3.8c-4.7,3.7-11.6,4.7-18.2,7.1
	c1.3-2.9,2.6-5.6,4-8.7c-2.9-1.9-5.5-3.6-8-5.3c7.5-1.1,17.2,6.9,20.4-5.4c1.2-4.4-2.3-10.1-3.3-14.1c4.7,1.6,10.9,5.2,17,5
	c3.4-0.1,7.7-6,9.8-10.2c6.8-13.9-9.5-10.4-13.1-16.7c11.2-0.4,37.8,11.6,47.1,21.2c-5.6-2.5-11.1-5.7-17-7.2
	c-3.4-0.9-9-0.4-10.9,1.8c-4,4.8-6.2,11.1-9.3,17.1C967.9,534.5,982.2,530.9,995.9,530.7z"/>
<path class="st10" d="M769.2,445c-4.3-8.3-8.2-15.6-12.1-23c8.3-4.2,14.7-1,19.4,9.6C779.7,438.8,776.5,442.7,769.2,445z"/>
<path class="st10" d="M958.5,554c6.5,6,12.9,12,19.4,18.1c-0.4,0.4-0.7,0.8-1.1,1.2c-2.3-1.6-4.7-3.2-8.9-6.1
	c1.5,5.4,2.4,8.8,3.4,12.2c-0.4,0.2-0.9,0.4-1.3,0.7c-4.7-7.9-9.3-15.9-14-23.8C956.9,555.5,957.7,554.7,958.5,554z"/>
<path class="st10" d="M453.1,401.9c-8.3-1.4-17-2-24.9-4.7c-3.5-1.2-5.6-6.7-8.3-10.3c3.4-2.4,6.8-6.8,10.3-6.8
	c11.4,0,23,0.7,34,3.2c4.5,1,10.7,7.3,10.9,11.5c0.3,7.7-7.8,5.7-13,6.2c-2.9,0.3-5.9,0-8.9,0C453.2,401.3,453.2,401.6,453.1,401.9z
	"/>
<path class="st10" d="M500.5,408.5c-7.7,2.7-14.2,4.9-22.3,7.7c4-8.6,10.9-11.3,18.2-12.9C497.4,403.1,499.3,406.9,500.5,408.5z"/>
<path class="st10" d="M264.1,583.3c-8.9-3.3-17.8-6.3-28.3-1.4c7.5,1.9,15,3.9,22.6,5.8c35,10.3,35,10.3,43.7,4.3
	C288.8,589,276.5,586.2,264.1,583.3z"/>
<path class="st10" d="M243.3,543.4c-1.1,1.8-2.2,3.6-3.3,5.5c6,2.5,11.9,5,17.9,7.5c0.7-1.5,1.4-3.1,2.1-4.6
	C254.4,549,248.8,546.2,243.3,543.4z"/>
<path class="st10" d="M282.5,520.4c-23.8-6.8-23.8-6.8-34.4-2.6c13.1,3.2,23.5,5.8,33.9,8.4c5.4,1.1,10.7,2.2,18.2,3.8
	C295.5,519.6,287.8,522.6,282.5,520.4z"/>
<g>
	<path class="st10" d="M1054.9,524.6c-2.1-35.7-18.1-61.5-48.3-79.5c-4.2-2.5-8.6-5.4-11.4-9.2c-13.1-17.9-29.8-30.1-51.2-36.3
		c-16.9-4.9-32.1-14.1-50.8-14.2c-36.4-0.2-72.9-2.3-109.3-3.6c-19.3-0.7-36.7-4.7-53.2-16.7c-31.8-23.2-65.3-44.1-98.2-66
		c-4.5-3-8.6-5.2-5.5-12.4c8.3-19.3-0.1-38.3-23.2-54.7c-13-9.2-33.3-7.9-46.3,4.4c-10.6,10-22.1,12.6-36.1,10.8
		c-11.9-1.6-24.2-2.5-36.1-1.6c-22.2,1.6-44.2,5.2-66.3,6.6c-6,0.4-13-3.2-18.4-6.6c-8.9-5.7-25.5-7.3-33.8-1.7
		c-16.1,11-24.8,33.9-15.7,49.1c3.7,6.1,5.5,13.4,8.7,19.8c3.7,7.5,2.9,13.4-3.2,19.5c-5,5.1-8.4,11.6-13,17.2
		c-4.6,5.7-8.9,12.2-14.7,16.2c-16,10.9-33.2,20.1-49.1,31.1c-10.8,7.5-21.1,9.4-34.1,6.6c-17.1-3.8-23.7,1.5-39.2,3.8
		c1,1-19.1,2.6-23.2,2.6c-4.3-10.6,10.3-25.2-15.4-34.1c-6.1-3-6.1-7.5-3.3-12.8c0.3-4.5,6.4-9.4,6.7-13.9
		c-2.9-9.2-5.2-19-18.4-17.3c-4.5,1.9-4.5,1.9-7.8,3.2c-2.2-0.3-2.3,0.2-10.6-0.7c-4-6.1-3.1-17.7-7.1-23.8
		c-12.4-9.4-19.2-8.4-35.5-3.7c-5.2,2.1-4.4,20.3-1.9,24.7c3.1,5.5,6.9,8.3,3.1,12.6c-3.2,3.6-7.4,9.8-9.5,16.9
		c-4.5,12-7,22.2-5.6,31c0.9,3.3,7.4,21.1,6.8,28.3c-1.8,20.2-17.8,144.6-21.1,151.8c-3,14-12.4,22.1-14.7,33.1
		c5.4,9.2,8.8,15,12.3,20.9c0.8,1.4,1.6,2.7,2.5,4.1c0,0.6,1.1,1.7,2.9,3c0.3,3.3,0.4,6.6,0.5,9.9c0.1,9.3-0.8,19.1-3.6,27.9
		c-5.1,16.5-4.5,31.9,5.7,46c14.4,19.9,29.5,39.4,44.3,59.1c1.3,1.8,2.4,3.7,4.3,6.7c2.2,0.9,3.3,3.2,4.5,5c38.8,0,77.6,0,116.5,0
		c26.6,0,53.1,0,79.7,0c38.1,0,76.3,0.2,114.4-0.1c8.8-0.1,14.5,2.4,19.1,10.5c3.7,6.6,9.5,12.6,15.6,17.1
		c31.9,23.4,67.2,41.3,105.6,49.3c43.1,9,86.8,7.6,129-8.8c17.1-6.7,32.5-15.1,46.2-27.5c5.4-4.9,13.8-7.7,21.2-8.8
		c16.7-2.4,31-8.7,42.5-20.7c4.6-4.8,9.7-7.8,15.2-9.4c1-2,2-3.9,3.1-5.8c-0.4,0-0.7-0.1-1-0.1c3.9-14.1,7.6-16.8,19.7-14.3
		c33.1,6.8,64.5-1.9,94.2-14.2c27.3-11.4,44.8-35.8,61.5-59.6c1.8-2.6,2.9-6,3.4-9.2c2.9-21.3,13.9-38.5,25.7-55.8
		c6.2-9,11.7-19.3,14.2-29.8C1054,575.8,1056.5,550.6,1054.9,524.6z M551.6,249.8c9.1-14.1,33.3-19.4,48.7-10.6
		c18.6,10.7,26,31.9,17.1,48.7c-7.3,13.8-17,16.1-29.8,7.1c-3.5-2.5-6.7-5.3-10.3-7.5c-4.8-2.9-10.1-6.5-6.6-12.1
		c2.5-4,8.4-6.1,13-8.4c1.7-0.9,4.2-0.1,6.4-0.1c-0.1-1.1-0.1-2.2-0.2-3.2c-7,0.5-14,1.1-21,1.4c-4.2,0.2-8.7,0.6-12.5-0.5
		C548.9,262.2,547.3,256.5,551.6,249.8z M363.5,339.5c7-7.3,10.6-15.2,10.8-25.5c0.1-5.8,3.2-11.6,5.8-20.1
		c-5.5,3.7-8.9,5.9-12.2,8.1c-12-9.5-14.4-36.9-4.1-47.9c8.9-9.7,26.8-9.8,33.9,0.9c2.5,3.7,2.3,10.4,0.8,15
		c-0.5,1.7-8.5,2.5-12.4,1.4c-6.8-2-11.9-2.6-16,5.9c13.4,0,25.5,6.1,37.7-4c5.6-4.7,14.5-5.8,22.1-7.5c18.6-4.2,37.1-9.6,55.9-11.4
		c30.9-2.8,58.9,5.9,79.4,30.6c11.4,13.8,21.1,29.1,30.3,44.5c3,5,4.5,13.5,2.4,18.6c-11.7,28.4-29.6,49.3-63.2,45.4
		c-10.8-1.3-24.7-11.2-26.8-21.6c-0.5-2.3,3.8-7.3,6.7-8.2c12.6-3.8,23.8-9.4,32.9-18.9c1.8-1.9,3.4-3.8,5.3-5.9
		c-4.8-5.3-17.9,1.8-16-9.9c0.9-5.6,8-10.2,13.4-16.4c-4.1,0.9-7.3,1.3-10.2,2.4c-17.3,6.9-34.7,13.9-51.9,21.2
		c-8.2,3.5-22.2-3.6-26.9-14.3c-1.7-3.8-2.6-8-4.4-13.7c-4.9,7.2-2.8,12.4-0.2,18.2c1.9,4.3,2.3,9.3,3.3,14c-6-0.2-13.2,1.7-17.7-1
		c-17-10.1-37.6-7.4-53.7-17c6.8,8.9,13.8,17.5,20.1,26.7c1.3,1.8,0.9,6.1-0.4,8.2c-6.9,11.5-14.1,22.9-21.9,33.9
		c-1.5,2-7.8,3.6-8.9,2.4c-7.7-7.9-16.6-15.5-21.2-25.1C351.8,358.8,355.7,347.7,363.5,339.5z M445.1,346.2
		c6.5-1.3,14.4,0.5,20.9,2.9c22.9,8.4,37.1,26.5,48,47.2c6.1,11.7-2.7,34.6-17.3,42.2c-10.8,5.7-23.1,8.5-30.4,11
		c-26.4-1.9-46.3-8.3-64.6-19.2c-8.2-4.9-10.9-12.7-10.2-21.9C393.9,379.4,416.8,352,445.1,346.2z M408.2,344
		c0.6-1.7,1.2-3.5,1.8-5.2c4,1.3,8,2.5,11.8,4.2c0.4,0.2-0.8,3.9-1.2,5.9C416.5,347.3,412.4,345.6,408.2,344z M491.4,342.5
		c0.8-2.4,5.3-3.9,8.4-5.2c2-0.9,4.5-0.7,7.5-1c6.1,1.3,13.1,4.3,18.9-2.9c0.5-0.7,7.3,1.6,8.3,3.8c1.4,3.1,1.6,8.6-0.3,10.9
		c-10,12.1-26.2,13.1-38.2,2.9C493.5,348.9,490.7,344.6,491.4,342.5z M230.5,413.8c2.6,0.9,7.3,1.6,7,1c7.3,1.3,14.7,3.2,22.1,5.9
		c3.4,1.2,9-0.3,12.2-2.6c19-13.5,37.6-27.6,56.3-41.5c2.9-2.1,5.9-5.3,9.1-5.7c3.8-0.5,9.4,0.1,11.7,2.6c7,7.4,12.7,15.9,19,23.9
		c5.4,7,4.8,9.1-4.1,10.5c-17.8,2.7-34.9,6.8-48.4,22c14.6-3,28-5.9,41.5-8.3c6.1-1.1,12.4-1.3,18.6-1.1c3,0.1,7.2,1.2,8.8,3.3
		c9.5,13.2,23.9,18.2,38,23.3c7.8,2.8,11.5,7,10.2,15.3c-2.1,12.8-3.5,25.7-6.5,38.3c-0.8,3.3-6.1,6-9.8,8.1c-3.3,2-8,2-10.8,4.3
		c-13.7,11.4-30.2,13.3-46.9,15.5c-1,0.1-2.7-0.6-5.4-2.6c-8.1-5.6-9.1-8.6-22.6-22.5c-10.5-10.8-37.5-30.1-38-30.9
		c-4.5-0.5-9.1-0.9-13.6-1.4c-2.4-0.8-4.7-1.6-7.1-2.4c2.3-5.9,5-8.5,7.2-14.3c2.9-9.2,5.4-16,3.7-18.8
		c-2.9,2.2-14.9,11.6-17.7,13.9c-2.4,3.6-4.9,7.3-8.1,12c0,0,0,0,0,0c-0.9,1.5-2.2,3.6-2.9,4.7c-5.3-6.9-9.2-12.1-13.2-17.3
		c-2.9-1.8-5.8-3.7-8.7-5.5c-0.2-2.3-0.4-4.6-0.6-6.9c-0.2-4.9-0.5-9.8-0.7-14.6c-1.1-2.2-2.2-4.4-4.5-8.9
		C227.6,413.5,229.1,413.7,230.5,413.8z M65.6,607.3c2.1-4.8,3.9-8.8,5.6-12.8c1.1-2.7,2.2-5.4,3.3-8.1
		c10.9-54,21.1-108.1,23.4-163.4c-2-9.2-2.7-18.8-6.2-27.4c-6.8-16.8-5.1-31,8.9-43.1c0.8-1.2,1.5-2.5,2.3-3.7
		c1.5-5.1,3-10.1,4.4-14.6c-3.1-6.8-12.9-7.7-9-19.6c34.4-3.9,15.3,22.7,33.4,35.6c6.1,0.9,8.4-7.6,19.8-3c6.6,3.6,6.5,7.6,2.1,11.6
		c-5.7,5.2-12,9.9-8.9,22.6c0.7,0.5,4,3,7.2,5.5c4,0.7,8,1.5,12,2.2c3.6-0.3,6.8,2.9,7.7,6.2c2.3,4.5-0.8,10-1.1,12.2
		c5.9,15.4,3.2,14.6,18.2,12.3c4.6-0.7,9.2-1.1,13.6-1.6c3.8,2.9,7.1,5.2,10.1,7.9c1.6,1.5,2.6,3.8,3.9,5.8c0.2,8.1-9,16.8,1.4,24
		c5.8,3.7,11.6,7.5,17.3,11.2c2.5,3.5,5,6.9,7.6,10.4c-0.6,1.2-1.3,2.3-1.9,3.5c-5.5-1.1-10.9-2.3-16.4-3.4
		c-2.2-1.7-4.4-3.4-6.6-5.1c-4.9,1.2-9.9,2.4-14.9,3.6c-3.4,9.7-6.5,18.4-9.5,27.1c-4.8,26-9.6,52.1-14.4,78.1
		c12.8,0.1,12.6,12.3,19.7,20.7c-8.8,2.7-16.4,5-24,7.3c-0.3,2.3-0.6,4.6-0.9,6.9c-0.7,3.6-1.5,7.2-2.2,10.9
		c-28.3,7.5-55.4,2.6-81.9-8c-1.5-0.8-3-1.6-4.5-2.5C78.9,613.5,72.8,610.7,65.6,607.3z M211.2,539c-1.3,0.5-6.3,2.7-8.5,6.9
		c-2.2,4.1-4.2,16-2.2,18.8c3.8,5.3-8.3,6.5-10.8,7.5c2.6-12.1,8.8-70.8,24.4-88c1,1.4,1.9,2.9,2.9,4.3l-1.7,5.5
		c-0.1,0.2-0.1,0.4-0.1,0.6l0,0c0.2,5.1,2,10.1,5,14.2l0,0l-9.1,7.8C203.2,523.7,207.6,531,211.2,539z M209.1,611.9
		c1.2-0.4,2.3-0.8,3.6-1.3c8.4,4.8,17.4,10,26.4,15.2c1.1,0.3,2.1,0.6,3.2,1c4.7,1.5,9.3,3,14,4.6c2.7,0.6,5.4,1.3,8.1,1.9
		c5.8,0.5,11.5,1,17.3,1.5c15.4,0.2,30.9,0.4,46.3,0.6c2.4-0.5,4.9-0.9,7.3-1.4c4.3-3,13.6-6.3,18.6-1.8
		c8.6,9.6,17.1,19.1,25.7,28.7c5.2,5.9,9.8,12.4,14.3,18.8c7.1,10.2,3.9,19.6-8.4,20.6c-10.7,0.8-22.8,0.4-32.4-3.8
		c-24.3-10.7-47.4-24-71.3-35.8c-25.6-12.7-51.3-25-77.3-36.9c-4.4-2-9.5-2.4-14.5-3c0-0.6-0.1-1.3-0.1-1.9c2.3-0.8,4.6-1.6,6.9-2.4
		C200.5,614.9,204.5,613.5,209.1,611.9z M307.3,773.3C307.2,774.1,307.3,773.5,307.3,773.3c-13.5-2.1-27-5.6-40.5-6.1
		c-38.4-1.4-76.9-1.9-115.3-2.2c-8.8-0.1-14.8-3-20.1-9.7c-13.1-16.5-27-32.3-39.9-48.9C86.3,699.7,82,692,79,684.2
		c-4.9-12.8,0.7-24.2,7-35.4c2.4-4.3,4.8-8.6,7.1-12.9c2.4,0.1,4.7,0.3,7.1,0.4c22.1,5.7,44.5,8.5,67.3,5.3c6-0.9,11.8-3.7,17.7-5.6
		c-0.3-0.7-0.1-1.3,0.6-1.7c2.9-7.3,8.6-5.2,13.9-4.2c0-0.5,0-1.1,0-1.6c24.2,8.1,46.1,20.6,66.4,36.2c2.8,2.2,4.5,5.7,6.7,8.7
		c-3.5,2.2-6.9,6.2-10.4,6.3c-26.1,0.7-51.2,12.3-77.8,7.8c-1.2-0.2-2.6,0.2-6.1,0.6c17.2,5.8,32.7,4.9,48.2,3.4
		c14.7-1.5,29.4-3.1,44-4.6c21.1-2.2,40.7,2.9,60.4,10.7c24.1,9.6,49,17,73.7,24.8c7.5,2.4,12.4,6,15.7,13.3
		c6.9,15.5,10.6,22.3,18.9,39.4C377.1,775.1,367.4,773.3,307.3,773.3z M1043.1,534.8c-0.3,20-1.4,40.2-12.2,59.1
		c11,2.5,8.3,8.6,4.6,14.8c-2,3.4-4,6.8-6.2,10c-5.9,8.7-11.3,8.4-15.5-1.2c-3.9-8.9-7.1-18-10.6-27c-0.8,0.2-1.7,0.4-2.5,0.7
		c0.5,7,1.2,13.9,1.3,20.9c0.8,46.5-16.2,86.7-48.2,119.1c-24.6,24.9-56.9,33-91.9,26.8c-7.9-1.4-13.6-4.2-5-12.3
		c-5.4-4.2-15.6,4.1-16.3-6.2c-0.4-5.4,4.6-11.1,7.1-16.7c-0.9-0.7-1.7-1.3-2.6-2c-5.1,6.3-10.6,12.3-15.3,18.8
		c-10.4,14.7-19.7,30.2-30.8,44.3c-9,11.3-22.7,15.8-36.8,16.4c-27.3,1.1-54.4,1-80.9-8.4c-10.3-3.6-21.9-4.2-33-5.3
		c-24.4-2.3-48.8-4-73.9-5c8.1,2.5,16.1,5.9,24.4,7.3c16.8,2.9,34.3,2.9,50.6,7.3c22.1,6,43.3,15.1,64.9,23
		c3.8,1.4,7.3,3.8,12.5,6.5c-3.6,3.4-5.8,6.3-8.6,7.9c-15.3,8.7-31.4,14.7-49.5,14.7c-18.4,0-36.8,0.7-55.2,1.5
		c-34.2,1.4-65.3-9-95.7-23.2c-20.6-9.6-39.9-20.8-52.3-40.2c-8.3-12.9-15.3-26.8-21.7-40.8c-20.7-45.3-50.1-84.7-82.1-122.4
		c-2.4-2.8-4.7-5.6-6.9-8.5c-4.6,1.1-9.2,1.9-13.7,3c0.1,0.1,0.1,0.2,0.2,0.2c-19.5,3.7-37.3,7.2-55.7,2
		c-19.5-5.6-42.1,0.4-60.4-18.7c-0.1-0.4-1-4.1-1.9-8c-2.4,0.6-4.1,1-5.8,1.4c-1.5,2.4-3.1,3.6-4.7,4.1c-3.6,1.1-7.3-1.7-9.9-4.2
		c-2.7-2.6-3.7-8.4-3.1-12.5c0.8-5.4,0.9-8.9,6.7-10.4c5.5-1.4,10.1-0.6,7-5.3l0,0.1c-2.1-1.4-4.2-2.9-6.3-4.3
		c-4.5-3-3.5-3.7-1.6-10.9c0.8-3,4.7-5.9,7.5-7.2c3.6-0.8,11.1-0.9,14.7-1.7c-1.3-2.3-26.1-10.6-11.2-25.2l11.1-6.5
		c-7.3-5.8-6.5-15.8-6.5-15.8c3.6-5.5,8.4-5.6,13.9-3.4c2.6,1.1,5.2,2.2,7.8,3.3c2.5,0.9,7,1.9,10.6,2.9c0,0-0.1,0-0.1,0
		c10.5,3.3,21.1,6.7,31.6,10c2.4,1.6,4.8,3.3,7.2,4.9c4,4,8.4,6.5,16.5,3.8c-6.2-4.3-10.7-7.5-15.2-10.6c-2.5-1.7-5-3.4-7.5-5.2
		c-6.8-2-13.7-4-20.5-6c-3.5-2-9.3-2.9-11.9-6.6c-2.8-4-1.5-9.8-1.5-13.5c-0.1-3.6,4.1-6,5.9-6.6c3.1,0.6,5.2,1.9,8.1,4
		c3.1,2.3,8.1,4.7,11.8,6c3.8,0.6,7.6,1.2,11.4,1.9c19.4,13.1,32.2,32.5,47,49.9c5,5.9,9.2,12.5,14.7,20.2c-2,1.3,20.4,1.2,31.5,2
		c22.2,1.7,44.3,6.4,66.5,6.5c21.6,0.1,43.2-0.9,64.8-2.1c0,0,0,0,0,0c47.5,2.1,86.7-16.2,125.8-10.6c14.4,2,29.5-0.6,44.2-1.5
		c20.2-1.3,35.3,8.7,48.5,22.2c6.7,6.8,11.9,14.8,18.2,22c13.1,14.9,41.8,13.2,49.9-1.4c-13.1-3.8-27.2-6.3-39.8-12
		c-17.6-7.9-25-20.5-20.3-33.5c-11.7-1.9-23.1-3.7-34.4-5.8c-5.8-1-11.6-2.5-17.4-3.8c4.3-4.5,7.8-11,13.1-13.2
		c10.7-4.4,22.2-8.6,33.5-9.2c19.6-1,39.3,0.4,59,1.5c6.7,0.4,13.5,2.5,19.9,4.8c10,3.5,21,4.1,29.5,0.6c-13.1-5.3-26-10.5-39-15.7
		c-1.2-0.5-2.6-0.5-3.8-0.9c-14.7-4.6-16.7-7.6-12-22c2.5-7.7,6.1-15.3,10.6-21.9c4.5-6.5,5.1-12.3,1.5-20.3
		c-5.9,5.6-11.9,10.2-16.4,16c-5.6,7.2-12.2,9.4-20.7,7.3c-7.3-1.8-14.6-3.9-22.1-5c-5.4-0.8-11.1-0.2-16.6-0.2
		c-0.1,0.8-0.2,1.6-0.3,2.4c8.9,3.8,18,7.1,26.5,11.6c6.3,3.3,12.2,7.8,17.2,12.8c2.2,2.2,2.7,7.4,1.9,10.7
		c-0.4,1.7-5.3,3.1-8.3,3.2c-26.1,0.6-52,2.6-75.4,15.7c-9.1,5.1-17,12.3-25.8,17.9c-3.6,2.3-8.6,4.9-12.4,4.1
		c-37.3-7.3-74.4-4.8-111.9-1.1c-13.4,1.3-27.6-3.2-41-6.7c-13.2-3.5-25.8-9.2-38.6-13.9c-1.2,1.5-2.4,2.9-3.7,4.4
		c2.4,0.8,5.2,1.1,7.1,2.6c9.5,7.6,19,15.2,28,23.4c3,2.7,4.2,5,3.9,6.9c1,0.6-15.1,2-24.2,0.5c-13.1-1.1-24.9-3.7-36.7-6.8
		c-1.6,0.6-21.4-2.7-42-8.7c6.8-4,13.7-8,20.5-12c9.1-5.3,18.2-4.4,27.4-0.6c2.9,1.2,5.6,2.7,10.9,5.3c-1.7-6.7-3.4-10.9-3.6-15.1
		c-0.5-13.1-0.5-26.2-0.6-39.3c0-7,3.6-10.1,10.7-9.4c14.6,1.5,28-2.9,41-8.8c14.3-6.5,25.6-16.1,30.1-31.9
		c1.8-6.3,5.6-9.2,12.2-8.9c3.2,0.1,7.1,0.3,9.6-1.2c30-18.2,61.8-9.6,93.3-6.5c18.6,1.8,37.1,4.1,55.7,6c1.7,0.2,3.6-0.5,5.5-2.9
		c-14.8-3.8-29.5-8-44.4-11.2c-14.7-3.2-29.6-5.6-44.5-8.1c-11.9-2-12.7-3.4-7.9-14.6c2.8-6.6,5.1-13.4,7.6-20.1
		c5.1-13.6,3.5-26.2-4.9-38.3c-4.9-7-1.1-10.9,6-10.8c6,0.1,13.2,0.4,17.7,3.7c27,19.2,53.4,39.3,79.8,59.3c2,1.5,2.6,4.8,3.8,7.3
		c-2.6,1.1-5.1,2.6-7.8,3.1c-3.7,0.7-7.5,0.6-11.3,0.8c-0.1,0.8-0.1,1.5-0.2,2.3c13.7,2,27.4,4,41.2,5.9c23.1,3.1,46.2,6.2,69.3,9.3
		c1.6,0.2,4,0,4.7,1c5.9,7.4,12.8,3,18.9,1.4c19-4.9,38.1-6.6,57.6-4.6c21.2,2.2,39.1,12.3,57,22.9c9.7,5.7,20.3,10.1,30.2,15.4
		c3,1.6,5.7,4.3,7.6,7.1c14.2,21.3,21.6,44.8,22.7,70.4c0.2,4.1,0.8,8.2,1.2,12.3c0.9,0.1,1.8,0.2,2.7,0.4c0.6-2.1,1.6-4.1,1.7-6.2
		c0.3-10.2,0.1-20.4,0.7-30.6c0.2-3.6,2.2-7.1,3.5-10.6c3.3,1.7,6.9,2.9,9.7,5.1C1042.9,494.2,1043.4,514.7,1043.1,534.8z"/>
	<path class="st10" d="M307.3,773.3C307.3,773.3,307.3,773.3,307.3,773.3C307.3,773.2,307.3,773.2,307.3,773.3z"/>
</g>
<path class="st10" d="M235.8,499.1c-0.7,0.8-1.7,2.4-1.7,3.5c-0.1,1.2,0.5,2,0.8,3.9l-2.6,2.4c-1.2-0.5-2.2-1.5-2.7-2.9
	c-1.6-4.1,0.6-8.9,4.9-10.3C234.4,495.8,235.8,499.1,235.8,499.1L235.8,499.1z"/>
<g>
	<path class="st10" d="M226.2,537.1c-0.6,0-1.1-0.3-1.5-0.8c-1.3-2-2.4-2.6-3.6-4.1c-1.8-2.3,0.4-5.9,1.2-7.8c0.6-1.6,1.6-3,2.8-4
		c2.7-2.5,6.1-3.5,6.3-3.5c0.9-0.3,1.9,3.2,0.9,3.4c0,0-1.9,0.5-3.7,1.8c-1.2,0.8-2.4,2-3,3.6c-0.6,1.7-0.4,2.8,0.6,5
		c0.4,0.8,0.9,2.7,1.5,3.6C228.2,535.1,226.5,537.1,226.2,537.1z"/>
</g>
<g>
	<path class="st10" d="M215.5,563.5c-0.5,0-1-0.2-1.3-0.6c-1.6-1.8-2.4-3.8-2.2-6c0.3-2.6,0.2-3.8,1.4-5.3c1.2-1.5,3.5-3.1,3.6-3.1
		c0.8-0.6,3,2.2,2.2,2.8c-1,0.8-3.5,0.8-3.7,3.4c-0.1,1.2,0.4,4.8,1.3,5.8c0.7,0.7,0.6,1.8-0.1,2.5
		C216.4,563.4,216,563.5,215.5,563.5z"/>
</g>
<path class="st10" d="M210.6,594.1c-6.3-5.1-4.7-10.2,0.1-15.3c0.6,1.6,1.2,3.1,1.8,4.7c-0.5,2.3-0.9,4.7-1.4,7
	C211,591.7,210.8,592.9,210.6,594.1z"/>
</svg>
